<mxfile host="app.diagrams.net" modified="2023-07-26T21:00:36.988Z" agent="Mozilla/5.0 (Windows NT 10.0; Win64; x64) AppleWebKit/537.36 (KHTML, like Gecko) Chrome/115.0.0.0 Safari/537.36 Edg/115.0.1901.183" etag="bQmd5QcMVbmur1iUJjty" version="21.6.5" type="device">
  <diagram name="PÃ¡gina-1" id="i9dsGSPmGzWr3bMdZpup">
    <mxGraphModel dx="1748" dy="924" grid="1" gridSize="10" guides="1" tooltips="1" connect="1" arrows="1" fold="1" page="1" pageScale="1" pageWidth="1169" pageHeight="1654" math="0" shadow="0">
      <root>
        <mxCell id="0" />
        <mxCell id="1" parent="0" />
        <mxCell id="xGNKaPsi3rCFCDHk64af-12" style="edgeStyle=orthogonalEdgeStyle;rounded=0;orthogonalLoop=1;jettySize=auto;html=1;" edge="1" parent="1" source="xGNKaPsi3rCFCDHk64af-1" target="xGNKaPsi3rCFCDHk64af-2">
          <mxGeometry relative="1" as="geometry" />
        </mxCell>
        <mxCell id="xGNKaPsi3rCFCDHk64af-1" value="INICIO" style="ellipse;whiteSpace=wrap;html=1;" vertex="1" parent="1">
          <mxGeometry x="240" y="190" width="120" height="40" as="geometry" />
        </mxCell>
        <mxCell id="xGNKaPsi3rCFCDHk64af-13" style="edgeStyle=orthogonalEdgeStyle;rounded=0;orthogonalLoop=1;jettySize=auto;html=1;entryX=0;entryY=0.5;entryDx=0;entryDy=0;entryPerimeter=0;" edge="1" parent="1" source="xGNKaPsi3rCFCDHk64af-2" target="xGNKaPsi3rCFCDHk64af-9">
          <mxGeometry relative="1" as="geometry" />
        </mxCell>
        <mxCell id="xGNKaPsi3rCFCDHk64af-2" value="Saldo" style="shape=manualInput;whiteSpace=wrap;html=1;" vertex="1" parent="1">
          <mxGeometry x="240" y="270" width="120" height="60" as="geometry" />
        </mxCell>
        <mxCell id="xGNKaPsi3rCFCDHk64af-11" style="edgeStyle=orthogonalEdgeStyle;rounded=0;orthogonalLoop=1;jettySize=auto;html=1;entryX=1;entryY=0.5;entryDx=0;entryDy=0;exitX=0.5;exitY=1;exitDx=0;exitDy=0;exitPerimeter=0;" edge="1" parent="1" source="xGNKaPsi3rCFCDHk64af-9" target="xGNKaPsi3rCFCDHk64af-10">
          <mxGeometry relative="1" as="geometry" />
        </mxCell>
        <mxCell id="xGNKaPsi3rCFCDHk64af-9" value="Saldo Inicial: &quot; + Saldo" style="strokeWidth=2;html=1;shape=mxgraph.flowchart.display;whiteSpace=wrap;" vertex="1" parent="1">
          <mxGeometry x="440" y="270" width="160" height="60" as="geometry" />
        </mxCell>
        <mxCell id="xGNKaPsi3rCFCDHk64af-15" style="edgeStyle=orthogonalEdgeStyle;rounded=0;orthogonalLoop=1;jettySize=auto;html=1;entryX=0.5;entryY=0;entryDx=0;entryDy=0;entryPerimeter=0;" edge="1" parent="1" source="xGNKaPsi3rCFCDHk64af-10" target="xGNKaPsi3rCFCDHk64af-14">
          <mxGeometry relative="1" as="geometry" />
        </mxCell>
        <mxCell id="xGNKaPsi3rCFCDHk64af-10" value="encerrar = &#39;n&#39;" style="rounded=1;whiteSpace=wrap;html=1;absoluteArcSize=1;arcSize=14;strokeWidth=2;" vertex="1" parent="1">
          <mxGeometry x="240" y="390" width="120" height="40" as="geometry" />
        </mxCell>
        <mxCell id="xGNKaPsi3rCFCDHk64af-20" style="edgeStyle=orthogonalEdgeStyle;rounded=0;orthogonalLoop=1;jettySize=auto;html=1;entryX=0.493;entryY=0.158;entryDx=0;entryDy=0;entryPerimeter=0;" edge="1" parent="1" source="xGNKaPsi3rCFCDHk64af-14" target="xGNKaPsi3rCFCDHk64af-16">
          <mxGeometry relative="1" as="geometry" />
        </mxCell>
        <mxCell id="xGNKaPsi3rCFCDHk64af-51" style="edgeStyle=orthogonalEdgeStyle;rounded=0;orthogonalLoop=1;jettySize=auto;html=1;entryX=1;entryY=0.5;entryDx=0;entryDy=0;entryPerimeter=0;" edge="1" parent="1" source="xGNKaPsi3rCFCDHk64af-14" target="xGNKaPsi3rCFCDHk64af-47">
          <mxGeometry relative="1" as="geometry">
            <mxPoint x="430" y="1500" as="targetPoint" />
            <Array as="points">
              <mxPoint x="840" y="530" />
              <mxPoint x="840" y="1500" />
            </Array>
          </mxGeometry>
        </mxCell>
        <mxCell id="xGNKaPsi3rCFCDHk64af-14" value="encerrar = &#39;n&#39;" style="strokeWidth=2;html=1;shape=mxgraph.flowchart.decision;whiteSpace=wrap;" vertex="1" parent="1">
          <mxGeometry x="240" y="480" width="120" height="100" as="geometry" />
        </mxCell>
        <mxCell id="xGNKaPsi3rCFCDHk64af-21" style="edgeStyle=orthogonalEdgeStyle;rounded=0;orthogonalLoop=1;jettySize=auto;html=1;entryX=0.507;entryY=0.178;entryDx=0;entryDy=0;entryPerimeter=0;" edge="1" parent="1" source="xGNKaPsi3rCFCDHk64af-16" target="xGNKaPsi3rCFCDHk64af-17">
          <mxGeometry relative="1" as="geometry" />
        </mxCell>
        <mxCell id="xGNKaPsi3rCFCDHk64af-16" value="tipo entrada" style="html=1;strokeWidth=2;shape=manualInput;whiteSpace=wrap;rounded=1;size=26;arcSize=11;" vertex="1" parent="1">
          <mxGeometry x="240" y="600" width="120" height="60" as="geometry" />
        </mxCell>
        <mxCell id="xGNKaPsi3rCFCDHk64af-22" style="edgeStyle=orthogonalEdgeStyle;rounded=0;orthogonalLoop=1;jettySize=auto;html=1;entryX=0.5;entryY=0;entryDx=0;entryDy=0;entryPerimeter=0;" edge="1" parent="1" source="xGNKaPsi3rCFCDHk64af-17" target="xGNKaPsi3rCFCDHk64af-18">
          <mxGeometry relative="1" as="geometry" />
        </mxCell>
        <mxCell id="xGNKaPsi3rCFCDHk64af-17" value="quantidade" style="html=1;strokeWidth=2;shape=manualInput;whiteSpace=wrap;rounded=1;size=26;arcSize=11;" vertex="1" parent="1">
          <mxGeometry x="240" y="690" width="120" height="60" as="geometry" />
        </mxCell>
        <mxCell id="xGNKaPsi3rCFCDHk64af-23" style="edgeStyle=orthogonalEdgeStyle;rounded=0;orthogonalLoop=1;jettySize=auto;html=1;entryX=0.5;entryY=0;entryDx=0;entryDy=0;entryPerimeter=0;" edge="1" parent="1" source="xGNKaPsi3rCFCDHk64af-18" target="xGNKaPsi3rCFCDHk64af-19">
          <mxGeometry relative="1" as="geometry" />
        </mxCell>
        <mxCell id="xGNKaPsi3rCFCDHk64af-25" style="edgeStyle=orthogonalEdgeStyle;rounded=0;orthogonalLoop=1;jettySize=auto;html=1;entryX=0;entryY=0.75;entryDx=0;entryDy=0;" edge="1" parent="1" source="xGNKaPsi3rCFCDHk64af-18" target="xGNKaPsi3rCFCDHk64af-24">
          <mxGeometry relative="1" as="geometry" />
        </mxCell>
        <mxCell id="xGNKaPsi3rCFCDHk64af-18" value="tipo entrada = 1" style="strokeWidth=2;html=1;shape=mxgraph.flowchart.decision;whiteSpace=wrap;" vertex="1" parent="1">
          <mxGeometry x="240" y="790" width="120" height="100" as="geometry" />
        </mxCell>
        <mxCell id="xGNKaPsi3rCFCDHk64af-38" style="edgeStyle=orthogonalEdgeStyle;rounded=0;orthogonalLoop=1;jettySize=auto;html=1;entryX=0;entryY=0.5;entryDx=0;entryDy=0;entryPerimeter=0;" edge="1" parent="1" source="xGNKaPsi3rCFCDHk64af-19" target="xGNKaPsi3rCFCDHk64af-34">
          <mxGeometry relative="1" as="geometry" />
        </mxCell>
        <mxCell id="xGNKaPsi3rCFCDHk64af-43" style="edgeStyle=orthogonalEdgeStyle;rounded=0;orthogonalLoop=1;jettySize=auto;html=1;entryX=0.5;entryY=0;entryDx=0;entryDy=0;entryPerimeter=0;" edge="1" parent="1" source="xGNKaPsi3rCFCDHk64af-19" target="xGNKaPsi3rCFCDHk64af-42">
          <mxGeometry relative="1" as="geometry" />
        </mxCell>
        <mxCell id="xGNKaPsi3rCFCDHk64af-19" value="tipo entrada = 2" style="strokeWidth=2;html=1;shape=mxgraph.flowchart.decision;whiteSpace=wrap;" vertex="1" parent="1">
          <mxGeometry x="240" y="960" width="120" height="100" as="geometry" />
        </mxCell>
        <mxCell id="xGNKaPsi3rCFCDHk64af-27" style="edgeStyle=orthogonalEdgeStyle;rounded=0;orthogonalLoop=1;jettySize=auto;html=1;entryX=0;entryY=0.5;entryDx=0;entryDy=0;entryPerimeter=0;" edge="1" parent="1" source="xGNKaPsi3rCFCDHk64af-24" target="xGNKaPsi3rCFCDHk64af-26">
          <mxGeometry relative="1" as="geometry" />
        </mxCell>
        <mxCell id="xGNKaPsi3rCFCDHk64af-24" value="saldo = saldo + quantidade" style="rounded=1;whiteSpace=wrap;html=1;absoluteArcSize=1;arcSize=14;strokeWidth=2;" vertex="1" parent="1">
          <mxGeometry x="420" y="810" width="160" height="40" as="geometry" />
        </mxCell>
        <mxCell id="xGNKaPsi3rCFCDHk64af-29" style="edgeStyle=orthogonalEdgeStyle;rounded=0;orthogonalLoop=1;jettySize=auto;html=1;" edge="1" parent="1" source="xGNKaPsi3rCFCDHk64af-26">
          <mxGeometry relative="1" as="geometry">
            <mxPoint x="320" y="930" as="targetPoint" />
            <Array as="points">
              <mxPoint x="730" y="930" />
            </Array>
          </mxGeometry>
        </mxCell>
        <mxCell id="xGNKaPsi3rCFCDHk64af-26" value="&quot;Entrada: &quot; + quantidade" style="strokeWidth=2;html=1;shape=mxgraph.flowchart.display;whiteSpace=wrap;" vertex="1" parent="1">
          <mxGeometry x="640" y="800" width="160" height="60" as="geometry" />
        </mxCell>
        <mxCell id="xGNKaPsi3rCFCDHk64af-39" style="edgeStyle=orthogonalEdgeStyle;rounded=0;orthogonalLoop=1;jettySize=auto;html=1;entryX=0;entryY=0.5;entryDx=0;entryDy=0;" edge="1" parent="1" source="xGNKaPsi3rCFCDHk64af-34" target="xGNKaPsi3rCFCDHk64af-36">
          <mxGeometry relative="1" as="geometry" />
        </mxCell>
        <mxCell id="xGNKaPsi3rCFCDHk64af-41" style="edgeStyle=orthogonalEdgeStyle;rounded=0;orthogonalLoop=1;jettySize=auto;html=1;entryX=0.5;entryY=0;entryDx=0;entryDy=0;entryPerimeter=0;" edge="1" parent="1" source="xGNKaPsi3rCFCDHk64af-34" target="xGNKaPsi3rCFCDHk64af-35">
          <mxGeometry relative="1" as="geometry" />
        </mxCell>
        <mxCell id="xGNKaPsi3rCFCDHk64af-34" value="saldo &amp;gt;= quantidade" style="strokeWidth=2;html=1;shape=mxgraph.flowchart.decision;whiteSpace=wrap;" vertex="1" parent="1">
          <mxGeometry x="430" y="960" width="120" height="100" as="geometry" />
        </mxCell>
        <mxCell id="xGNKaPsi3rCFCDHk64af-44" style="edgeStyle=orthogonalEdgeStyle;rounded=0;orthogonalLoop=1;jettySize=auto;html=1;" edge="1" parent="1" source="xGNKaPsi3rCFCDHk64af-35">
          <mxGeometry relative="1" as="geometry">
            <mxPoint x="320" y="1190" as="targetPoint" />
            <Array as="points">
              <mxPoint x="500" y="1190" />
            </Array>
          </mxGeometry>
        </mxCell>
        <mxCell id="xGNKaPsi3rCFCDHk64af-35" value="&quot;Saldo Insuficiente&quot;" style="strokeWidth=2;html=1;shape=mxgraph.flowchart.display;whiteSpace=wrap;" vertex="1" parent="1">
          <mxGeometry x="410" y="1110" width="160" height="60" as="geometry" />
        </mxCell>
        <mxCell id="xGNKaPsi3rCFCDHk64af-40" style="edgeStyle=orthogonalEdgeStyle;rounded=0;orthogonalLoop=1;jettySize=auto;html=1;entryX=0.5;entryY=0;entryDx=0;entryDy=0;entryPerimeter=0;" edge="1" parent="1" source="xGNKaPsi3rCFCDHk64af-36" target="xGNKaPsi3rCFCDHk64af-37">
          <mxGeometry relative="1" as="geometry" />
        </mxCell>
        <mxCell id="xGNKaPsi3rCFCDHk64af-36" value="saldo = saldo - quantidade" style="rounded=1;whiteSpace=wrap;html=1;absoluteArcSize=1;arcSize=14;strokeWidth=2;" vertex="1" parent="1">
          <mxGeometry x="640" y="990" width="160" height="40" as="geometry" />
        </mxCell>
        <mxCell id="xGNKaPsi3rCFCDHk64af-45" style="edgeStyle=orthogonalEdgeStyle;rounded=0;orthogonalLoop=1;jettySize=auto;html=1;" edge="1" parent="1" source="xGNKaPsi3rCFCDHk64af-37">
          <mxGeometry relative="1" as="geometry">
            <mxPoint x="320" y="1210" as="targetPoint" />
            <Array as="points">
              <mxPoint x="720" y="1210" />
              <mxPoint x="320" y="1210" />
            </Array>
          </mxGeometry>
        </mxCell>
        <mxCell id="xGNKaPsi3rCFCDHk64af-37" value="&quot;Saida: &quot; + quantidade" style="strokeWidth=2;html=1;shape=mxgraph.flowchart.display;whiteSpace=wrap;" vertex="1" parent="1">
          <mxGeometry x="640" y="1110" width="160" height="60" as="geometry" />
        </mxCell>
        <mxCell id="xGNKaPsi3rCFCDHk64af-49" style="edgeStyle=orthogonalEdgeStyle;rounded=0;orthogonalLoop=1;jettySize=auto;html=1;entryX=0.491;entryY=0.195;entryDx=0;entryDy=0;entryPerimeter=0;" edge="1" parent="1" source="xGNKaPsi3rCFCDHk64af-42" target="xGNKaPsi3rCFCDHk64af-46">
          <mxGeometry relative="1" as="geometry" />
        </mxCell>
        <mxCell id="xGNKaPsi3rCFCDHk64af-42" value="Saldo" style="strokeWidth=2;html=1;shape=mxgraph.flowchart.display;whiteSpace=wrap;" vertex="1" parent="1">
          <mxGeometry x="250" y="1260" width="100" height="60" as="geometry" />
        </mxCell>
        <mxCell id="xGNKaPsi3rCFCDHk64af-52" style="edgeStyle=orthogonalEdgeStyle;rounded=0;orthogonalLoop=1;jettySize=auto;html=1;entryX=0;entryY=0.5;entryDx=0;entryDy=0;entryPerimeter=0;" edge="1" parent="1" source="xGNKaPsi3rCFCDHk64af-46" target="xGNKaPsi3rCFCDHk64af-14">
          <mxGeometry relative="1" as="geometry">
            <Array as="points">
              <mxPoint x="140" y="1390" />
              <mxPoint x="140" y="530" />
            </Array>
          </mxGeometry>
        </mxCell>
        <mxCell id="xGNKaPsi3rCFCDHk64af-46" value="Encerrar? (s/n)" style="html=1;strokeWidth=2;shape=manualInput;whiteSpace=wrap;rounded=1;size=26;arcSize=11;" vertex="1" parent="1">
          <mxGeometry x="250" y="1360" width="100" height="60" as="geometry" />
        </mxCell>
        <mxCell id="xGNKaPsi3rCFCDHk64af-50" style="edgeStyle=orthogonalEdgeStyle;rounded=0;orthogonalLoop=1;jettySize=auto;html=1;entryX=0.5;entryY=0;entryDx=0;entryDy=0;entryPerimeter=0;" edge="1" parent="1" source="xGNKaPsi3rCFCDHk64af-47" target="xGNKaPsi3rCFCDHk64af-48">
          <mxGeometry relative="1" as="geometry" />
        </mxCell>
        <mxCell id="xGNKaPsi3rCFCDHk64af-47" value="&quot;Sistema Encerrado&quot;" style="strokeWidth=2;html=1;shape=mxgraph.flowchart.display;whiteSpace=wrap;" vertex="1" parent="1">
          <mxGeometry x="235" y="1470" width="130" height="60" as="geometry" />
        </mxCell>
        <mxCell id="xGNKaPsi3rCFCDHk64af-48" value="Fim" style="strokeWidth=2;html=1;shape=mxgraph.flowchart.start_1;whiteSpace=wrap;" vertex="1" parent="1">
          <mxGeometry x="250" y="1570" width="100" height="40" as="geometry" />
        </mxCell>
        <mxCell id="xGNKaPsi3rCFCDHk64af-53" value="V" style="text;strokeColor=none;fillColor=none;html=1;fontSize=24;fontStyle=1;verticalAlign=middle;align=center;" vertex="1" parent="1">
          <mxGeometry x="230" y="580" width="100" height="40" as="geometry" />
        </mxCell>
        <mxCell id="xGNKaPsi3rCFCDHk64af-54" value="V" style="text;strokeColor=none;fillColor=none;html=1;fontSize=24;fontStyle=1;verticalAlign=middle;align=center;" vertex="1" parent="1">
          <mxGeometry x="330" y="800" width="100" height="40" as="geometry" />
        </mxCell>
        <mxCell id="xGNKaPsi3rCFCDHk64af-55" value="V" style="text;strokeColor=none;fillColor=none;html=1;fontSize=24;fontStyle=1;verticalAlign=middle;align=center;" vertex="1" parent="1">
          <mxGeometry x="340" y="977" width="100" height="40" as="geometry" />
        </mxCell>
        <mxCell id="xGNKaPsi3rCFCDHk64af-56" value="V" style="text;strokeColor=none;fillColor=none;html=1;fontSize=24;fontStyle=1;verticalAlign=middle;align=center;" vertex="1" parent="1">
          <mxGeometry x="540" y="977" width="100" height="40" as="geometry" />
        </mxCell>
        <mxCell id="xGNKaPsi3rCFCDHk64af-57" value="F" style="text;strokeColor=none;fillColor=none;html=1;fontSize=24;fontStyle=1;verticalAlign=middle;align=center;" vertex="1" parent="1">
          <mxGeometry x="420" y="1060" width="100" height="40" as="geometry" />
        </mxCell>
        <mxCell id="xGNKaPsi3rCFCDHk64af-58" value="F" style="text;strokeColor=none;fillColor=none;html=1;fontSize=24;fontStyle=1;verticalAlign=middle;align=center;" vertex="1" parent="1">
          <mxGeometry x="480" y="490" width="100" height="40" as="geometry" />
        </mxCell>
        <mxCell id="xGNKaPsi3rCFCDHk64af-59" value="F" style="text;strokeColor=none;fillColor=none;html=1;fontSize=24;fontStyle=1;verticalAlign=middle;align=center;" vertex="1" parent="1">
          <mxGeometry x="230" y="900" width="100" height="40" as="geometry" />
        </mxCell>
        <mxCell id="xGNKaPsi3rCFCDHk64af-60" value="F" style="text;strokeColor=none;fillColor=none;html=1;fontSize=24;fontStyle=1;verticalAlign=middle;align=center;" vertex="1" parent="1">
          <mxGeometry x="235" y="1130" width="100" height="40" as="geometry" />
        </mxCell>
        <mxCell id="xGNKaPsi3rCFCDHk64af-61" value="Senai - Desenvolvimento Back-End&lt;br&gt;LÃ³gica de ProgramaÃ§Ã£o&lt;br&gt;Atividade 4a-1 - Estoque&lt;br&gt;Aluno: Paulo Eduardo Trindade de Freitas" style="text;strokeColor=none;fillColor=none;html=1;fontSize=24;fontStyle=1;verticalAlign=middle;align=center;" vertex="1" parent="1">
          <mxGeometry x="470" y="80" width="100" height="40" as="geometry" />
        </mxCell>
      </root>
    </mxGraphModel>
  </diagram>
</mxfile>
